<?xml version="1.0" encoding="UTF-8"?>
<svg id="Calque_2" data-name="Calque 2" xmlns="http://www.w3.org/2000/svg" viewBox="0 0 412.13 349.05">
  <defs>
    <style>
      .cls-1 {
        fill: #b7573c;
      }
    </style>
  </defs>
  <g id="Calque_1-2" data-name="Calque 1">
    <g>
      <g>
        <path class="cls-1" d="M65.61,239.52c-2.31.16-4.8.68-7.41,1.57-3.05,1.04-5.97,2.45-8.69,4.18v4.19c0,.75.03,1.42.09,2.03.69-.63,1.39-1.25,2.11-1.86,4.4-3.76,9.07-7.16,13.9-10.11Z"/>
        <path class="cls-1" d="M26.69,245.84v-48.6c0-2.71.77-3.48,3.48-3.48h15.86c2.71,0,3.48.78,3.48,3.48v30.67c.67-.25,1.34-.51,2.03-.74,5-1.65,10.31-2.48,15.78-2.48,1.58,0,2.96.11,4.22.35,2.07.39,3.58,1.23,4.66,2.28v-108.59c0-5.61-1.55-7.16-7.16-7.16h-12.38c-5.61,0-7.16,1.55-7.16,7.16v44.48c0,2.51-.77,3.48-3.48,3.48h-15.86c-2.71,0-3.48-.97-3.48-3.48v-44.48c0-5.61-1.55-7.16-7.16-7.16H7.16c-5.61,0-7.16,1.55-7.16,7.16v130.74c0,5.61,1.55,7.16,7.16,7.16h12.38c2.18,0,3.74-.24,4.84-.85-.01-.31-.04-.61-.04-.93,0-3.03.79-6.04,2.35-9Z"/>
        <path class="cls-1" d="M106.95,229.9c3.12,1.81,4.91,5.06,4.91,8.93s-1.66,8.01-4.92,11.93c-1.65,1.99-3.65,3.95-5.97,5.85h45.05c5.61,0,7.16-1.55,7.16-7.16v-12.77c0-5.61-1.55-7.16-7.16-7.16h-26.3c-2.71,0-3.48-.97-3.48-3.48v-28.24c0-2.71.77-3.48,3.48-3.48h24.37c5.22,0,6.77-1.55,6.77-7.16v-12.76c0-5.61-1.55-7.16-7.16-7.16h-23.98c-2.71,0-3.48-.97-3.48-3.48v-21.66c0-2.71.77-3.48,3.48-3.48h26.3c5.61,0,7.16-1.55,7.16-7.16v-12.77c0-5.61-1.55-7.16-7.16-7.16h-49.32c-5.61,0-7.16,1.55-7.16,7.16v110.59c3.53-.79,6.96-1.19,10.25-1.19,2.7,0,5.11.6,7.15,1.78Z"/>
        <path class="cls-1" d="M240.39,118.72c0-5.61-1.55-7.16-7.16-7.16h-10.83c-5.61,0-7.16,1.55-7.16,7.16v63.05c0,1.74-.39,2.13-1.36,2.13-.77,0-1.35-.39-1.93-1.74l-24.56-65.56c-1.74-4.45-3.68-5.03-9.28-5.03h-8.7c-5.61,0-7.16,1.55-7.16,7.16v130.74c0,5.61,1.55,7.16,7.16,7.16h10.64c5.61,0,7.16-1.55,7.16-7.16v-63.05c0-1.74.39-2.13,1.35-2.13.77,0,1.35.39,1.93,1.74l24.18,64.02c1.5,4.04,2.89,5.76,6.22,6.33l19.5-27.85v-109.8Z"/>
        <path class="cls-1" d="M256.15,218.22c.76-.09,1.3-.15,1.88-.19,2.68-.24,5.19,1.15,6.5,3.47,1.3,2.32,1.14,5.19-.41,7.35l-10.38,14.41v6.2c0,5.61,1.55,7.16,7.16,7.16h8.38c.41-1.76,1.32-3.78,3.24-5.7,2.19-2.18,4.91-3.37,7.91-3.52v-29.26c0-2.32.2-3.1,1.16-5.03l8.32-15.28c.78-1.35,2.13-1.16,2.52.39l14.31,51.64c1.55,5.22,3.48,6.77,9.28,6.77h11.8c5.22,0,6.96-2.9,5.41-8.12l-24.37-79.29c-.78-2.32-.78-3.29.39-5.41l22.43-44.68c2.32-4.64,1.16-7.54-4.45-7.54h-11.99c-7.35,0-8.7.77-11.8,7.16l-19.92,41.77c-.58,1.35-1.16,1.55-1.94,1.55-.97,0-1.55-.39-1.55-1.94v-41.39c0-5.61-1.55-7.16-7.16-7.16h-11.99c-5.61,0-7.16,1.55-7.16,7.16v99.47s0,0,.01,0c.22.02.89.06,2.4.03Z"/>
        <path class="cls-1" d="M374.81,109.63c-28.04,0-37.32,11.99-37.32,44.48v59.95c0,32.68,9.28,44.48,37.32,44.48s37.32-11.8,37.32-44.48v-59.95c0-32.49-9.28-44.48-37.32-44.48ZM384.67,220.64c0,7.74-3.09,10.83-9.86,10.83s-9.86-3.09-9.86-10.83v-72.14c0-8.51,3.1-11.8,9.86-11.8s9.86,3.29,9.86,11.8v72.14Z"/>
      </g>
      <path class="cls-1" d="M382.6,64.24c-10.62-3.75-22.23-5.01-33.6-3.65h0c-5.55.65-11.13,1.99-16.6,3.97-2.82,1.02-5.62,2.18-8.33,3.3-2.39.99-4.87,2.02-7.32,2.93-4.31,1.6-10,3.44-15.85,3.56-4.18.08-10.11-.52-15.02-3.95-1.59-1.13-3.73-3.02-4.93-5.59-1.01-2.1-1.44-4.63-1.22-7.31.23-2.69,1.07-5.09,2.41-6.94,1.46-1.99,3.49-3.29,5.71-3.65l4.06-.66c.33-.05.59-.32.63-.66.04-.34-.16-.65-.47-.78l-3.84-1.5c-10.28-4.01-20.55-2.68-27.35-.86-8.1,2.17-16.34,6.14-24.49,11.82-3.14,2.2-6.15,4.6-9.07,6.92-3.89,3.09-7.91,6.29-12.12,8.93-4.05,2.56-7.8,4.29-11.44,5.29-4.15,1.1-8.39,1.37-12.28.76-4.17-.64-8.03-2.45-10.58-4.97-2.79-2.65-4.33-6.26-4.46-10.44-.13-3.5.54-7.39,2.11-12.25.33-1,.69-2.03,1.06-3.03l1.28-2.96c.25-.56.49-1.13.73-1.7.61-1.45,1.18-2.81,2-4.07.38-.61.73-1.24,1.08-1.88.7-1.27,1.37-2.46,2.29-3.52l.74-.97c1.05-1.39,2.05-2.71,3.37-3.84,2.44-2.66,5.79-4.87,10.22-6.77,3.46-1.4,7.53-2.04,12.14-1.88,4.34.21,8.53,1.14,12.1,2.69l3.14,1.36c.27.12.6.06.82-.15s.29-.53.18-.81l-1.22-3.13c-2-5.12-5.08-9.35-8.9-12.22-3.71-2.86-8.45-4.65-14.1-5.32-10.35-1.14-20.29,1.31-28.66,3.87-4.79,1.53-9.29,3.35-13.37,5.41-3.97,1.99-8.02,4.37-12.38,7.27-8.19,5.49-15.88,11.9-22.45,17.48-1.52,1.29-3.04,2.6-4.56,3.9-5.53,4.74-11.25,9.63-17.07,14.16-3.63,2.81-7.46,5.55-11.38,8.16-1.22.82-2.51,1.59-3.76,2.34-.73.43-1.45.87-2.16,1.3-1.28.75-2.64,1.44-3.96,2.12-.75.38-1.5.77-2.22,1.15-8.65,4.19-17.92,6.35-26.72,6.13-4.95-.12-9.46-1.03-13.42-2.69-4.34-1.8-8.07-4.63-10.8-8.17-.25-.33-.72-.39-1.04-.14-.33.25-.4.71-.15,1.04,2.81,3.82,6.72,6.91,11.29,8.92,4.13,1.83,8.86,2.89,14.06,3.12,9.2.37,18.87-1.64,27.98-5.83.73-.37,1.47-.73,2.21-1.09,1.36-.66,2.77-1.34,4.15-2.11.71-.42,1.43-.83,2.14-1.23,1.33-.76,2.71-1.54,4.02-2.38,3.61-2.27,7.43-4.94,11.69-8.15,5.98-4.53,11.81-9.41,17.45-14.13,1.5-1.26,3-2.51,4.5-3.76,6.53-5.42,14.18-11.65,22.3-16.96,4.27-2.77,8.21-5.02,12.04-6.88,3.83-1.88,8.03-3.53,12.82-5.06,4.87-1.49,9.27-2.54,13.44-3.19,5.06-.77,9.48-.9,13.51-.41,4.89.6,8.94,2.13,12.03,4.54,2,1.52,3.75,3.48,5.21,5.84-2.68-.72-5.49-1.15-8.55-1.33-5.2-.22-9.9.51-13.95,2.13-5.04,2.11-8.9,4.64-11.73,7.68-1.51,1.29-2.7,2.84-3.84,4.34l-.72.94c-1.08,1.24-1.87,2.64-2.63,3.99-.35.63-.71,1.26-1.09,1.87-.94,1.45-1.61,3.01-2.25,4.53-.24.57-.48,1.14-.75,1.71l-1.36,3.17c-.38,1.04-.75,2.11-1.11,3.22-1.17,3.68-2.48,8.57-2.28,13.83.11,2.63.63,5.06,1.55,7.23.85,2.09,2.38,4.32,4.21,6.12,3.35,3.29,7.76,5.38,13.09,6.21,1.58.24,3.18.36,4.8.36,3.04,0,6.15-.42,9.28-1.27,4.03-1.12,8.15-3.04,12.59-5.85,4.47-2.83,8.59-6.13,12.56-9.32,2.84-2.28,5.78-4.64,8.77-6.75,7.67-5.4,15.45-9.2,23.12-11.29,7.01-1.96,13.96-2.28,20.2-.94-1.14.84-2.14,1.86-2.96,3.02-1.69,2.41-2.72,5.44-2.98,8.79-.22,3.3.35,6.44,1.65,9.07,1.27,2.59,3.33,4.9,6.13,6.86,4.52,3.06,10.41,4.58,17.02,4.35,5.03-.17,10.37-1.44,16.79-4.01,2.49-.98,4.96-2.07,7.35-3.12,2.66-1.17,5.41-2.37,8.15-3.43,5.26-2.03,10.64-3.44,15.99-4.18,11.04-1.55,22.39-.55,32.83,2.89.39.12.81-.08.94-.47s-.07-.81-.46-.95Z"/>
      <g>
        <path class="cls-1" d="M47.4,321.68c-.63,0-1.46-1.3-2.5-3.91-1.04-2.6-1.65-5.87-1.82-9.8-3.16-.45-5.8-1.76-7.93-3.94-2.12-2.17-3.18-5.2-3.18-9.1,0-4.24,1.01-8.63,3.02-13.17,2.02-4.54,4.71-8.98,8.08-13.32-4-.9-6.98-2.6-8.94-5.09-1.97-2.48-2.95-5.33-2.95-8.52,0-2.61.97-5.27,2.92-7.98,1.95-2.71,4.62-5.23,8-7.56,3.39-2.33,7.25-4.21,11.58-5.63,4.33-1.43,8.87-2.14,13.64-2.14,1.15,0,2.14.08,2.97.23.83.16,1.25.37,1.25.65s-.23.42-.68.42c-.38,0-.9-.03-1.54-.1-.64-.07-1.4-.1-2.27-.1-3.48,0-7.16.66-11.05,1.98-3.89,1.32-7.55,3.12-10.98,5.4-3.42,2.28-6.21,4.88-8.37,7.8-2.16,2.92-3.23,5.98-3.23,9.18,0,2.22.91,4.3,2.74,6.23,1.83,1.93,4.44,3.28,7.85,4.04,3.55-4.38,7.6-8.52,12.15-12.41s9.35-7.33,14.39-10.3c5.04-2.97,10.06-5.31,15.07-7.01,5.01-1.7,9.73-2.56,14.18-2.56,1.49,0,2.74.29,3.73.86.99.57,1.49,1.57,1.49,3,0,2.36-1.11,4.88-3.34,7.56-2.22,2.68-5.21,5.3-8.97,7.87-3.75,2.57-7.96,4.94-12.62,7.09-4.66,2.16-9.45,3.92-14.39,5.29-4.94,1.37-9.65,2.16-14.13,2.37-4.66,5.11-8.51,10.13-11.55,15.07-3.04,4.94-4.56,9.21-4.56,12.82,0,2.75.69,4.91,2.06,6.49,1.37,1.58,3.22,2.62,5.55,3.1,0-4.76.88-9.34,2.63-13.74,1.75-4.4,4.11-8.32,7.06-11.78,2.95-3.46,6.26-6.19,9.93-8.18,3.67-2,7.43-3,11.29-3,2.92,0,5.15.67,6.7,2.01,1.55,1.34,2.32,3.1,2.32,5.29,0,2.99-.96,6.27-2.87,9.83-1.91,3.56-4.58,6.95-8,10.17-3.42,3.21-7.4,5.86-11.94,7.93-4.54,2.07-9.43,3.1-14.68,3.1-.42,0-.73-.02-.94-.05.07,1.88.32,4.09.76,6.65.43,2.55,1.21,4.56,2.32,6.02.14.17.21.31.21.42v.26c0,.17-.16.26-.47.26ZM46.09,306.77c2.82,0,5.72-.76,8.71-2.29,2.99-1.53,5.87-3.52,8.66-5.97,2.78-2.45,5.28-5.09,7.51-7.93,2.22-2.83,3.99-5.6,5.29-8.32,1.3-2.71,1.95-5.04,1.95-6.99,0-2.71-1.6-4.07-4.8-4.07-2.95,0-6.1.91-9.44,2.74-3.34,1.82-6.47,4.35-9.41,7.59-2.94,3.23-5.34,6.99-7.2,11.29-1.86,4.29-2.79,8.91-2.79,13.84v.05c.24.04.5.05.76.05h.76ZM52.87,267.61c3.82-.38,8.01-1.34,12.57-2.87,4.55-1.53,9.08-3.39,13.58-5.58,4.5-2.19,8.62-4.52,12.36-6.98,3.74-2.47,6.73-4.86,8.99-7.17,2.26-2.31,3.39-4.32,3.39-6.02,0-1.01-.37-1.72-1.12-2.14-.75-.42-1.73-.63-2.95-.63-2.57,0-5.74.86-9.49,2.58-3.75,1.72-7.79,4.07-12.1,7.04-4.31,2.97-8.64,6.33-12.98,10.06-4.35,3.74-8.43,7.64-12.25,11.71Z"/>
        <path class="cls-1" d="M91.46,308.12c-2.92,0-5.08-.67-6.47-2.01-1.39-1.34-2.17-2.98-2.35-4.93-.1-2.36.39-4.9,1.49-7.62,1.1-2.71,2.29-4.99,3.57-6.83,1.7-2.4,3.77-4.7,6.2-6.91,2.43-2.21,5.1-4.01,8-5.42,2.9-1.41,5.88-2.11,8.94-2.11,1.84,0,3.43.48,4.77,1.44,1.34.95,2.08,2.48,2.22,4.56.17,2.95-.4,6.06-1.72,9.31-1.32,3.25-3.11,6.26-5.37,9.05.24,1.01,1.03,1.51,2.35,1.51s2.69-.51,4.22-1.54c1.53-1.02,3.01-2.23,4.46-3.62,1.44-1.39,2.69-2.68,3.73-3.86,1.04-1.18,1.74-1.95,2.09-2.29l1.15.89c-.66.63-1.6,1.59-2.82,2.9-1.22,1.3-2.56,2.64-4.04,4.01-1.48,1.37-2.99,2.55-4.53,3.52-1.55.98-3,1.46-4.35,1.46-1.67,0-2.8-.52-3.39-1.56-2.57,2.92-5.47,5.33-8.68,7.22-3.22,1.9-6.37,2.84-9.46,2.84ZM92.81,306.56c1.22,0,2.62-.35,4.22-1.04s3.2-1.62,4.8-2.76c2.68-1.91,5.09-4.15,7.25-6.72v-.21c0-2.16.56-3.87,1.7-5.14,1.13-1.27,2.23-2.07,3.31-2.42,1.7-3.55,2.47-6.73,2.29-9.54-.1-1.7-.55-2.89-1.33-3.55-.78-.66-1.64-.99-2.58-.99-2.02,0-4.49,1.19-7.43,3.57-2.94,2.38-6.21,5.81-9.83,10.3-2.57,3.23-4.37,5.96-5.4,8.18-1.03,2.22-1.47,4.16-1.33,5.79,0,.94.32,1.93.96,2.97s1.76,1.56,3.36,1.56Z"/>
        <path class="cls-1" d="M127.17,308.12c-2.22,0-3.85-.61-4.88-1.83-1.02-1.21-1.54-2.88-1.54-5.01,0-2.33.49-4.81,1.49-7.45.99-2.64,2.63-5.27,4.93-7.87,4.69-5.46,9.08-9.1,13.16-10.93,4.08-1.82,7.92-2.74,11.5-2.74,1.81,0,3.34.39,4.59,1.15,1.25.76,1.88,1.81,1.88,3.13,0,1.01-.21,2.03-.63,3.07,1.11-1.32,2.06-2.48,2.84-3.47.78-.99,1.54-1.94,2.27-2.84.9.28,1.95.42,3.13.42.49,0,1.15-.02,1.98-.05.83-.03,1.48-.09,1.93-.16l-17.57,21.17c-2.22,2.64-3.82,4.79-4.8,6.44-.97,1.65-1.46,2.93-1.46,3.83,0,1.11.54,1.67,1.62,1.67,1.88,0,3.82-.55,5.84-1.64,2.02-1.1,4-2.5,5.94-4.22,1.95-1.72,3.77-3.51,5.47-5.37,1.7-1.86,3.21-3.58,4.51-5.16,1.3-1.58,2.3-2.75,3-3.52l1.04.89c-.76.87-1.84,2.12-3.23,3.75s-2.98,3.41-4.77,5.32c-1.79,1.91-3.72,3.74-5.79,5.48-2.07,1.74-4.19,3.16-6.36,4.28s-4.32,1.67-6.44,1.67c-3.48,0-5.21-1.08-5.21-3.23,0-.8.15-1.61.44-2.43.29-.82.89-1.88,1.8-3.18.9-1.3,2.26-3.05,4.07-5.24l-.52-.21c-4.24,5.21-8.16,8.9-11.76,11.05-3.6,2.16-6.42,3.23-8.47,3.23ZM127.38,306.56c2.22,0,5.16-1.29,8.81-3.89,3.65-2.59,8.03-6.91,13.14-12.95.83-1.01,1.61-1.95,2.32-2.82.71-.87,1.4-1.68,2.06-2.45.8-1.22,1.52-2.48,2.16-3.81.64-1.32.97-2.52.97-3.6s-.38-1.87-1.15-2.37c-.76-.51-1.6-.76-2.5-.76-1.7,0-4.46,1.22-8.26,3.68-3.8,2.45-7.99,6.37-12.54,11.76-2.61,3.13-4.48,5.91-5.63,8.34-1.15,2.43-1.72,4.48-1.72,6.15,0,1.81.78,2.71,2.35,2.71Z"/>
        <path class="cls-1" d="M177.23,308.33c-3.68,0-6.41-.91-8.16-2.74-1.76-1.82-2.63-4.04-2.63-6.65,0-2.26.53-4.65,1.59-7.17,1.06-2.52,2.68-5.09,4.87-7.69,3.79-4.45,7.79-7.55,12.02-9.31,4.22-1.76,7.86-2.58,10.92-2.48,2.33.07,3.95.62,4.87,1.64.92,1.02,1.4,2.09,1.43,3.21.07,1.49-.5,2.82-1.69,3.99-1.2,1.16-2.48,1.75-3.83,1.75-.8,0-1.56-.26-2.27-.78-.71-.52-1.09-1.28-1.12-2.29-.03-.97.34-1.79,1.12-2.45.78-.66,1.71-1.01,2.79-1.04.83-.03,1.72.16,2.66.57v-.21c0-.9-.3-1.63-.91-2.19-.61-.56-1.63-.83-3.05-.83-2.33,0-5.12,1.29-8.37,3.86-3.25,2.57-6.93,6.54-11.03,11.89-1.91,2.54-3.22,4.77-3.91,6.7-.7,1.93-1.04,3.66-1.04,5.19s.56,2.79,1.69,3.89c1.13,1.1,2.58,1.64,4.35,1.64,3.13,0,6.11-.57,8.94-1.72,2.83-1.15,5.44-2.6,7.82-4.35,2.38-1.76,4.51-3.57,6.39-5.45,1.88-1.88,3.42-3.58,4.64-5.11,1.22-1.53,2.07-2.61,2.55-3.23.17-.21.45-.18.83.08.38.26.49.49.31.7-.45.7-1.32,1.83-2.61,3.42-1.29,1.58-2.91,3.35-4.88,5.29-1.96,1.95-4.21,3.82-6.72,5.63-2.52,1.81-5.27,3.3-8.24,4.48-2.97,1.18-6.09,1.77-9.36,1.77Z"/>
        <path class="cls-1" d="M229.21,308.12c-1.6,0-3.16-.37-4.67-1.09-1.51-.73-2.27-1.7-2.27-2.92,0-.94.22-2.04.65-3.31.44-1.27,1.44-3.01,3-5.24,1.56-2.22,4.05-5.25,7.45-9.08,2.75-3.09,4.64-5.49,5.68-7.19s1.56-2.97,1.56-3.81c0-.49-.16-.92-.49-1.3-.33-.38-.98-.57-1.96-.57-.8,0-1.88.23-3.26.68-1.37.45-2.88,1.22-4.51,2.29-2.75,1.88-6.15,4.77-10.22,8.68-4.07,3.91-8.66,9.05-13.77,15.41l-4.8,6.36c-.56-.11-1.08-.17-1.56-.21s-.97-.05-1.46-.05c-1.25,0-2.3.06-3.15.18-.85.12-1.47.24-1.85.34l57.72-82.43c.45.03,1.05.09,1.8.16.74.07,1.81.09,3.2.05.28,0,.61-.03.99-.08.39-.05.8-.09,1.25-.13l-51.72,71.8.26.57c5.32-6.12,9.84-10.93,13.56-14.42,3.72-3.49,6.81-6.08,9.28-7.74,1.74-1.11,3.35-1.85,4.83-2.22,1.48-.36,2.77-.55,3.88-.55,2.26,0,3.87.55,4.82,1.64.96,1.09,1.4,2.3,1.33,3.62-.07,1.39-.53,3.05-1.41,4.98-.87,1.93-2.37,4.33-4.51,7.2-2.14,2.87-5.16,6.41-9.05,10.61-1.74,1.88-2.79,3.08-3.16,3.62-.36.54-.55,1.03-.55,1.48,0,.35.38.64,1.15.86.76.23,1.62.34,2.55.34,2.19,0,4.41-.61,6.65-1.83,2.25-1.21,4.41-2.74,6.49-4.59,2.09-1.84,3.98-3.72,5.68-5.63,1.7-1.91,3.14-3.59,4.3-5.03,1.17-1.44,1.92-2.36,2.27-2.74l1.15.89c-.45.45-1.28,1.44-2.48,2.95-1.2,1.51-2.71,3.25-4.51,5.21-1.81,1.97-3.8,3.88-5.99,5.74-2.19,1.86-4.49,3.41-6.91,4.64-2.41,1.23-4.84,1.85-7.27,1.85Z"/>
        <path class="cls-1" d="M252.36,308.12c-2.12,0-3.83-.39-5.14-1.17-1.3-.78-1.95-1.83-1.95-3.16,0-1.04.26-2.25.78-3.62.52-1.37,1.52-3.17,3-5.4,1.48-2.22,3.63-5.12,6.47-8.68,2.83-3.56,6.56-8.04,11.18-13.43.32.03,1.06.07,2.24.1s2.1.05,2.76.05c.59,0,1.03-.01,1.33-.03.29-.02.58-.04.86-.08-5.08,5.98-9.22,10.9-12.44,14.76-3.22,3.86-5.69,6.93-7.43,9.23-1.74,2.29-2.94,4.05-3.6,5.27-.66,1.22-.99,2.19-.99,2.92,0,.9.49,1.43,1.46,1.56.97.14,1.75.21,2.35.21,1.88,0,3.93-.63,6.15-1.9,2.22-1.27,4.44-2.85,6.65-4.74,2.21-1.9,4.26-3.82,6.15-5.76,1.89-1.95,3.45-3.62,4.67-5.03,1.22-1.41,1.93-2.21,2.14-2.42l1.04.94c-.38.42-1.22,1.37-2.5,2.87s-2.89,3.22-4.8,5.19c-1.91,1.97-4.01,3.89-6.28,5.76-2.28,1.88-4.62,3.44-7.04,4.69-2.41,1.25-4.77,1.88-7.06,1.88ZM279,262.34c-.97,0-1.75-.3-2.32-.91-.57-.61-.86-1.38-.86-2.32,0-1.22.51-2.34,1.54-3.36,1.03-1.02,2.25-1.54,3.68-1.54.97,0,1.75.32,2.32.97.57.64.86,1.42.86,2.32,0,1.29-.55,2.42-1.64,3.39-1.09.97-2.29,1.46-3.57,1.46Z"/>
        <path class="cls-1" d="M307.37,308.12c-1.91,0-3.57-.37-4.98-1.09-1.41-.73-2.11-1.7-2.11-2.92,0-.94.21-2.04.63-3.31.42-1.27,1.41-3.01,3-5.24,1.58-2.22,4.07-5.25,7.48-9.08,2.75-3.09,4.64-5.49,5.68-7.19,1.04-1.7,1.57-2.97,1.57-3.81,0-.49-.18-.92-.52-1.3-.35-.38-1.01-.57-1.98-.57-.7,0-1.63.23-2.79.68-1.16.45-2.55,1.22-4.14,2.29-2.75,1.88-6.12,4.77-10.12,8.68-4,3.91-8.59,9.05-13.77,15.41l-4.85,6.36c-.91-.17-1.91-.26-3.03-.26-1.25,0-2.28.06-3.1.18-.82.12-1.43.24-1.85.34,3.89-5.63,7.14-10.3,9.75-14,2.61-3.7,4.7-6.66,6.28-8.89,1.58-2.22,2.76-3.92,3.55-5.08.78-1.16,1.31-2,1.59-2.5.28-.5.43-.91.47-1.22.07-1.01-.31-1.51-1.14-1.51-.49,0-1.25.49-2.29,1.46-1.04.97-2.22,2.19-3.52,3.65-1.3,1.46-2.58,2.97-3.83,4.51-1.25,1.55-2.35,2.9-3.28,4.04-.25.14-.56.05-.94-.26-.21-.31-.26-.52-.16-.63,1.01-1.08,2.15-2.43,3.41-4.04,1.27-1.62,2.6-3.23,3.99-4.85,1.39-1.62,2.82-2.96,4.28-4.04s2.87-1.62,4.22-1.62c1.01,0,2.01.22,3,.65.99.44,1.4,1.47,1.22,3.1-.03.56-.21,1.26-.52,2.11-.31.85-.94,1.94-1.88,3.26l-10.95,15.23.26.57c5.42-6.12,9.95-10.93,13.58-14.42,3.63-3.49,6.7-6.08,9.2-7.74,1.67-1.11,3.14-1.85,4.41-2.22,1.27-.36,2.44-.55,3.52-.55,2.26,0,3.85.55,4.77,1.64.92,1.09,1.36,2.3,1.33,3.62-.04,1.39-.5,3.05-1.38,4.98-.89,1.93-2.4,4.33-4.54,7.2-2.14,2.87-5.13,6.41-8.99,10.61-1.77,1.88-2.84,3.08-3.21,3.62-.36.54-.55,1.03-.55,1.48,0,.35.36.64,1.07.86.71.23,1.61.34,2.68.34,2.12,0,4.29-.61,6.52-1.83,2.22-1.21,4.39-2.74,6.49-4.56,2.1-1.82,4.02-3.69,5.76-5.6s3.19-3.6,4.36-5.06c1.16-1.46,1.92-2.38,2.27-2.76l1.09.89c-.42.45-1.22,1.43-2.42,2.92-1.2,1.5-2.7,3.22-4.51,5.19-1.81,1.96-3.8,3.89-6,5.76-2.19,1.88-4.48,3.43-6.88,4.67-2.4,1.23-4.8,1.85-7.19,1.85Z"/>
        <path class="cls-1" d="M302.89,349.05c-1.46,0-2.69-.38-3.68-1.14-.99-.77-1.49-1.55-1.49-2.35-.03-1.46.49-3.02,1.59-4.67,1.09-1.65,3.02-3.49,5.76-5.5,2.75-2.02,6.53-4.28,11.34-6.78,4.81-2.5,10.91-5.32,18.27-8.44,2.85-3.48,6.01-7.37,9.47-11.68,3.46-4.31,7.31-9.13,11.55-14.44l-.42-.21c-4.55,5.18-8.64,8.86-12.25,11.03-3.62,2.17-6.52,3.26-8.71,3.26s-3.81-.61-4.85-1.83c-1.04-1.21-1.6-2.88-1.67-5.01,0-2.33.48-4.81,1.44-7.45.95-2.64,2.55-5.27,4.77-7.87,2.99-3.65,5.94-6.46,8.84-8.42,2.9-1.96,5.67-3.33,8.32-4.09s5.06-1.15,7.25-1.15,4.07.39,5.42,1.15,2.05,1.81,2.09,3.13c0,1.01-.21,2.03-.63,3.07,1.08-1.32,2-2.47,2.76-3.44s1.48-1.93,2.14-2.87c.38.11.88.2,1.49.29.61.09,1.21.13,1.8.13.45,0,1.1-.02,1.93-.05.83-.03,1.48-.09,1.93-.16l-16.79,21.64c-3.23,4.21-6.25,8.1-9.05,11.68-2.8,3.58-5.4,6.88-7.79,9.91,7.26-3.72,13.97-7.99,20.13-12.8,6.15-4.82,11.97-10.52,17.47-17.13l1.04.89c-6.09,7.27-12.43,13.39-19.03,18.38-6.6,4.99-13.8,9.34-21.59,13.06-5.18,6.4-9.6,11.57-13.27,15.51-3.67,3.95-6.9,6.95-9.7,9.02-2.8,2.07-5.44,3.48-7.93,4.22-2.48.75-5.14,1.12-7.95,1.12ZM303.04,347.64c1.77,0,3.54-.36,5.29-1.07,1.76-.71,3.72-1.98,5.89-3.8,2.17-1.83,4.75-4.39,7.74-7.69,2.99-3.3,6.62-7.52,10.9-12.67-8.17,3.55-14.7,6.68-19.58,9.41-4.89,2.73-8.41,5.2-10.59,7.4-2.17,2.21-3.26,4.32-3.26,6.33,0,.38.33.83.99,1.33.66.51,1.53.76,2.61.76ZM334.69,306.56c1.95,0,4.83-1.24,8.66-3.73,3.82-2.49,8.41-6.86,13.77-13.11l4.06-4.95c.83-1.22,1.59-2.52,2.27-3.91.68-1.39,1.02-2.66,1.02-3.8-.03-2.09-1.6-3.13-4.69-3.13-1.63,0-4.35,1.24-8.13,3.73-3.79,2.49-7.84,6.42-12.15,11.81-2.54,3.16-4.4,5.94-5.6,8.32-1.2,2.38-1.78,4.41-1.75,6.08.1,1.81.95,2.71,2.55,2.71Z"/>
      </g>
    </g>
  </g>
</svg>